<svg xmlns="http://www.w3.org/2000/svg" width="256" height="256" viewBox="0 0 256 256">
  <defs>
    <linearGradient id="gradient" x1="0%" y1="0%" x2="100%" y2="100%">  
      <stop offset="0%" style="stop-color:#4a90e2;stop-opacity:1"></stop>    
      <stop offset="100%" style="stop-color:#2c3e50;stop-opacity:1"></stop>  
    </linearGradient>
  </defs>
  <circle cx="128" cy="128" r="120" fill="url(#gradient)"></circle>
  <path d="M128 40 L128 216" stroke="white" stroke-width="8" stroke-linecap="round" data-index="0" style="opacity: 1;"></path>
  <path d="M40 128 L216 128" stroke="white" stroke-width="8" stroke-linecap="round" data-index="1"></path>
  <circle cx="128" cy="128" r="40" fill="none" stroke="white" stroke-width="8"></circle>
  <path d="M88 88 L168 168" stroke="white" stroke-width="8" stroke-linecap="round" data-index="2" style="opacity: 1;"></path>
  <path d="M168 88 L88 168" stroke="white" stroke-width="8" stroke-linecap="round" data-index="3"></path>
  <circle cx="128" cy="128" r="16" fill="white"></circle>
  <path d="M128 40 A88 88 0 0 1 216 128" fill="none" stroke="white" stroke-width="4" stroke-dasharray="12,8" data-index="4"></path>
  <path d="M216 128 A88 88 0 0 1 128 216" fill="none" stroke="white" stroke-width="4" stroke-dasharray="12,8" data-index="5" style="opacity: 1;"></path>
  <path d="M128 216 A88 88 0 0 1 40 128" fill="none" stroke="white" stroke-width="4" stroke-dasharray="12,8" data-index="6"></path>
  <path d="M40 128 A88 88 0 0 1 128 40" fill="none" stroke="white" stroke-width="4" stroke-dasharray="12,8" data-index="7"></path>
</svg>